<?xml version="1.0" encoding="UTF-8"?>
<!DOCTYPE svg PUBLIC "-//W3C//DTD SVG 1.1//EN" "http://www.w3.org/Graphics/SVG/1.1/DTD/svg11.dtd">
<!-- Creator: CorelDRAW -->
<svg xmlns="http://www.w3.org/2000/svg" xml:space="preserve" width="43.9155mm" height="9.6177mm" version="1.1" style="shape-rendering:geometricPrecision; text-rendering:geometricPrecision; image-rendering:optimizeQuality; fill-rule:evenodd; clip-rule:evenodd"
viewBox="0 0 230.58 50.5"
 xmlns:xlink="http://www.w3.org/1999/xlink"
 xmlns:xodm="http://www.corel.com/coreldraw/odm/2003">
 <defs>
  <style type="text/css">
   <![CDATA[
    .fil0 {fill:white}
    .fil1 {fill:white;fill-rule:nonzero}
   ]]>
  </style>
 </defs>
 <g id="Слой_x0020_1">
  <metadata id="CorelCorpID_0Corel-Layer"/>
  <g id="_2272387732896">
   <g>
    <path class="fil0" d="M-0 24.49l0 1.56c0.01,0.01 0.19,2.19 0.21,2.37 0.11,0.74 0.17,1.6 0.36,2.22 0.2,0.66 0.36,1.39 0.54,2.04 0.18,0.64 0.43,1.29 0.66,1.87 0.89,2.24 2.34,4.82 3.78,6.48 0.11,-0.45 0.59,-0.76 0.8,-1.07 -0.32,-0.48 -0.66,-0.9 -1,-1.4 -0.33,-0.5 -0.59,-0.94 -0.91,-1.45 -0.58,-0.92 -1.09,-2.13 -1.52,-3.19 -0.8,-1.97 -1.6,-5.12 -1.6,-7.87l0 -1.56c0,-3.29 1.12,-7.18 2.22,-9.38 1.36,-2.71 2.73,-4.75 4.77,-6.79 1.72,-1.72 4.42,-3.76 6.82,-4.78 2.58,-1.1 5.7,-2.21 9.35,-2.21l1.16 0c8.55,0 15.79,5.03 19.2,10.14l-0.76 0c-0.51,-0.96 -2.5,-2.98 -3.37,-3.7 -1.36,-1.14 -2.51,-2.04 -4.13,-2.94 -2.9,-1.6 -6.7,-2.92 -11.17,-2.92l-0.4 0c-6.85,0 -12.67,3.23 -16.1,6.66 -2.03,2.03 -3.39,3.93 -4.75,6.63 -0.55,1.1 -1.22,2.83 -1.53,4.16 -0.32,1.4 -0.74,3.3 -0.74,4.95l0 1.16c0,2.97 0.67,5.93 1.5,8.05 0.43,1.1 0.95,2.31 1.54,3.27 0.32,0.52 0.59,0.98 0.93,1.48 0.14,0.21 0.94,1.29 0.97,1.39 0.13,-0.01 0.82,-0.23 0.76,-0.35 -0.02,-0.05 -0.45,-0.57 -0.53,-0.68 -0.36,-0.48 -0.63,-0.93 -0.97,-1.43 -0.61,-0.9 -1.18,-2.07 -1.63,-3.12 -0.79,-1.84 -1.76,-5.17 -1.76,-7.75l0 -2.13c0,-1.7 0.43,-3.22 0.71,-4.63 0.26,-1.32 0.93,-2.78 1.41,-3.92 0.92,-2.17 2.85,-4.71 4.4,-6.26 1.81,-1.81 3.79,-3.26 6.22,-4.45 0.99,-0.49 2.73,-1.19 3.88,-1.45 0.76,-0.17 1.37,-0.3 2.2,-0.46 0.6,-0.12 1.73,-0.3 2.37,-0.3l1.96 0c3.63,0 8.11,1.4 10.32,2.79 1.29,0.81 2.83,1.67 3.87,2.71 0.59,0.59 1.09,0.98 1.67,1.62 0.2,0.22 1.48,1.59 1.48,1.77 0,0.01 -2.2,3.18 -2.41,3.46 -0.41,0.53 -2.17,3.24 -2.43,3.43 -0.06,-0.22 -2.14,-3.07 -2.45,-3.55 -0.24,-0.37 -2.38,-3.48 -2.52,-3.48l-8.76 0 0 5.82 1.29 0 0 -4.49 6.8 0c0.16,0 2.58,3.53 2.85,3.95 0.46,0.68 0.97,1.33 1.41,2.01 0.41,0.62 1.04,1.37 1.38,2 0.18,-0.13 2.53,-3.54 2.84,-4.01 0.26,-0.4 2.72,-3.95 2.85,-3.95l7.07 0c0.15,0 2.53,3.56 2.84,3.96 0.41,0.54 2.57,3.79 2.81,3.95 0.17,-0.13 1.45,-2.02 1.69,-2.36 0.21,-0.3 1.6,-2.18 1.6,-2.4l0 -3.16 11.78 0 0 6.53 -2.62 0 0 11.82 2.62 0 0 6.53 -11.78 0 0 -6.53 2.62 0 0 -9.82 -5.9 8.37 -5.91 -8.38 -0.02 16.37 -6.53 0 0 -16.4 -5.89 8.38c-0.32,-0.08 -5.13,-7.41 -5.93,-8.34l0 16.36 -6.58 0 0 -9.87 -1.29 0 0 11.2 9.16 0 0 -13.56 4.59 6.52 4.6 -6.53 0.01 13.57 0.13 0c-1.48,2.22 -4.58,4.68 -7.01,6.02 -2.51,1.39 -6.37,2.74 -10.24,2.74l-1.96 0c-0.89,0 -3.15,-0.36 -3.86,-0.58 -0.57,-0.18 -1.16,-0.31 -1.73,-0.49 -0.57,-0.18 -1.08,-0.37 -1.63,-0.59 -1.11,-0.44 -1.97,-0.94 -2.97,-1.48 -0.45,-0.25 -0.91,-0.59 -1.35,-0.88 -0.4,-0.26 -0.91,-0.73 -1.26,-0.92l-0.27 0.8c0.01,0 2.52,1.69 2.89,1.91 0.99,0.58 2.11,1.07 3.24,1.52 2.13,0.84 5.08,1.5 8.05,1.5l1.2 0c1.75,0 4.53,-0.55 5.88,-1.01 1.94,-0.65 3.11,-1.2 4.77,-2.08 1.55,-0.81 2.68,-1.85 3.98,-2.87 0.71,-0.55 2.83,-2.84 3.24,-3.61l0.76 0c-3.37,5.04 -10.65,10.14 -19.07,10.14l-1.29 0c-2.74,0 -5.95,-0.8 -7.91,-1.6 -1.1,-0.45 -2.24,-0.94 -3.22,-1.54 -1.05,-0.64 -1.86,-1.23 -2.83,-1.88l-0.99 0.84 -0.03 -0.04c0.23,0.35 2.48,1.83 2.98,2.09 1.16,0.6 2.08,1.1 3.36,1.66 1.13,0.49 2.53,0.88 3.83,1.2 0.66,0.16 1.45,0.27 2.15,0.39 0.25,0.04 2.23,0.2 2.26,0.23l2.18 0c0.09,-0.06 1.57,-0.1 1.85,-0.15 0.6,-0.11 1.11,-0.16 1.69,-0.27 1.16,-0.22 2.16,-0.43 3.17,-0.79 2.18,-0.78 3.58,-1.39 5.43,-2.48 1.56,-0.92 3.21,-2.21 4.46,-3.46 0.62,-0.62 1.4,-1.36 1.9,-2.06 0.29,-0.39 1.55,-1.9 1.64,-2.27l5.78 0 0 -13.51 4.56 6.46 4.58 -6.48 0.02 4.33 -2.62 0 0 9.2 14.45 0 0 -9.2 -2.62 0 0 -9.16 2.62 0 0 -9.2 -14.45 0 0 4.18c0,0.06 -1.83,2.71 -1.96,2.8l-4.91 -6.96 -5.45 -0.01c-0.09,-0.35 -1.37,-1.9 -1.66,-2.29 -0.53,-0.71 -1.28,-1.43 -1.9,-2.05 -1.28,-1.28 -2.86,-2.48 -4.46,-3.45 -0.88,-0.53 -1.65,-0.9 -2.58,-1.38 -0.92,-0.46 -1.86,-0.73 -2.85,-1.1 -0.7,-0.26 -2.33,-0.7 -3.16,-0.79 -0.59,-0.07 -1.06,-0.17 -1.73,-0.22 -0.12,-0.01 -1.76,-0.16 -1.78,-0.18l-2.22 0c-0.05,0.03 -2.54,0.29 -2.76,0.31 -0.75,0.06 -1.8,0.36 -2.49,0.53 -1.5,0.37 -3.17,0.98 -4.43,1.62 -1.3,0.66 -2.72,1.42 -3.83,2.26 -1.05,0.81 -2.4,1.81 -3.27,2.78 -0.98,1.09 -1.92,2.09 -2.75,3.34 -0.72,1.07 -1.73,2.6 -2.21,3.84 -0.6,1.55 -1.13,2.71 -1.59,4.5 -0.21,0.83 -0.34,1.65 -0.49,2.53 -0.05,0.29 -0.23,2.77 -0.24,2.78z"/>
    <path class="fil0" d="M12.18 21.03c0,-0.71 0.2,-1.16 0.54,-1.54 0.25,-0.27 0.81,-0.77 1.28,-0.77l0.62 0c1.05,0 1.91,1.16 1.91,2.31 0,1.1 -0.91,2.18 -2,2.18l-0.4 0c-1.03,0 -1.96,-1.11 -1.96,-2.18zm-3.02 -0.18l0 0.18c0,2.64 2.31,5.11 4.89,5.11l0.53 0c2.63,0 4.98,-2.41 4.98,-5.02l0 -0.31c0,-2.67 -2.38,-5.02 -5.11,-5.02 -2.86,0 -5.29,2.26 -5.29,5.07z"/>
    <polygon class="fil0" points="22.58,21.52 24.85,21.52 22.67,25.92 29.61,25.92 29.61,23.07 27.05,23.06 29.25,18.71 22.58,18.71 "/>
    <path class="fil0" d="M67.79 43.07l0.09 0c0.03,0.31 0.46,1.45 0.58,1.82 0.07,0.22 0.5,1.69 0.66,1.69l0.89 0 1.17 -3.52 0.29 4.28 1.03 -0 -0.35 -6.36 -1.2 0 -1.41 4.3 -0.06 0.01c-0.03,-0.34 -0.57,-1.79 -0.72,-2.22 -0.12,-0.36 -0.25,-0.72 -0.38,-1.09 -0.07,-0.21 -0.24,-1 -0.42,-1l-1.11 0 -0.32 6.36 1.03 0 0.22 -3.91 0 -0.36z"/>
    <path class="fil0" d="M63.97 6.89c0,-0.95 0.85,-1.96 1.73,-1.96l0.49 0c0.9,0 1.73,0.99 1.73,1.96 0,1 -0.86,1.96 -1.82,1.96l-0.31 0c-0.95,0 -1.82,-0.98 -1.82,-1.96zm-1.29 0.04c0,0.86 0.4,1.71 0.83,2.15 0.36,0.36 1.27,1.05 1.92,1.05l0.67 0c1.58,0 3.11,-1.46 3.11,-2.98l0 -0.49c0,-1.62 -1.58,-3.07 -3.24,-3.07 -1.84,0 -3.29,1.47 -3.29,3.33z"/>
    <polygon class="fil0" points="60.23,43.16 61.98,47.33 63.08,47.34 63.08,40.99 62.01,40.99 62.01,45.12 60.26,40.99 59.17,40.99 59.17,47.34 60.23,47.34 "/>
    <path class="fil0" d="M50.45 44.94c0,1.46 0.38,2.49 1.82,2.49 1.7,0 2.09,-0.81 2.09,-2.49l0 -3.96 -1.11 0 0 4.58c0,0.51 -0.23,1.2 -0.71,1.2l-0.27 0c-0.54,0 -0.71,-0.8 -0.71,-1.38l0 -4.4 -1.11 0 0 3.96z"/>
    <path class="fil0" d="M6.22 42.27c0,1.07 0.87,2 1.91,2 1.08,0 2.05,-0.87 2.05,-1.87l0 -0.18c0,-0.9 -0.88,-1.87 -1.78,-1.87l-0.4 0c-0.93,0 -1.78,0.97 -1.78,1.91z"/>
    <path class="fil0" d="M55.17 43.47l1.91 0c-0.21,0.39 -2,3.19 -2,3.29l0 0.58 3.24 0 0 -0.67 -1.96 0c0.12,-0.46 2,-3.07 2,-3.29l0 -0.58 -3.2 0 0 0.67z"/>
    <polygon class="fil0" points="64.37,47.34 65.43,47.34 65.43,40.99 64.37,40.99 "/>
    <path class="fil0" d="M20.54 18.8l0.84 0c0.23,0 0.28,-1.28 0.32,-1.55 0.06,-0.49 0.22,-1.17 0.22,-1.69l-1.38 0 0 3.24z"/>
    <polygon class="fil0" points="3.6,25.65 7.25,25.65 7.25,24.85 3.6,24.85 "/>
    <path class="fil0" d="M14.14 6.71c0,0.25 1.61,2.6 1.74,3.12l0.72 -0.38 -1.8 -3.14c-0.09,0.02 -0.67,0.35 -0.67,0.4z"/>
    <path class="fil0" d="M6.36 35.74c0,0.11 0.29,0.55 0.36,0.67l3.11 -1.78c-0.03,-0.11 -0.33,-0.67 -0.4,-0.67 -0.16,0 -3.07,1.78 -3.07,1.78z"/>
    <path class="fil0" d="M6.36 14.76c0,0.07 1.34,0.79 1.5,0.9 0.13,0.08 1.52,0.88 1.52,0.88 0.13,0 0.41,-0.53 0.44,-0.66l-3.11 -1.79c-0.06,0.09 -0.36,0.57 -0.36,0.67z"/>
    <path class="fil0" d="M33.94 9.46l0.73 0.37c0.12,-0.52 1.73,-2.88 1.73,-3.11 0,-0.07 -0.57,-0.35 -0.66,-0.39l-1.81 3.14z"/>
    <polygon class="fil0" points="33.97,41.05 35.74,44.19 36.44,43.81 34.63,40.67 "/>
    <polygon class="fil0" points="14.1,43.81 14.79,44.18 16.57,41.05 15.89,40.69 "/>
    <polygon class="fil0" points="24.89,46.9 25.65,46.9 25.65,43.3 24.89,43.3 "/>
    <polygon class="fil0" points="24.89,7.2 25.65,7.2 25.65,3.6 24.89,3.6 "/>
    <polygon class="fil0" points="63.97,32.09 67.92,32.09 67.92,31.52 63.97,31.52 "/>
    <polygon class="fil0" points="63.97,18.98 67.92,18.98 67.92,18.4 63.97,18.4 "/>
    <polygon class="fil0" points="63.97,25.52 67.92,25.52 67.92,24.98 63.97,24.98 "/>
    <polygon class="fil0" points="12.23,7.96 13.26,9.44 13.92,8.97 12.88,7.5 "/>
    <polygon class="fil0" points="26.98,45 26.97,45.3 27.12,46.81 27.93,46.72 27.74,44.93 "/>
    <polygon class="fil0" points="36.63,41.52 37.66,42.99 38.32,42.54 37.28,41.05 "/>
    <polygon class="fil0" points="32.98,43.52 33.7,45.18 34.44,44.88 33.73,43.22 "/>
    <polygon class="fil0" points="31.03,44.24 31.57,45.94 32.34,45.73 31.78,43.99 "/>
    <path class="fil0" d="M4 21.16c0.55,0 1.14,0.31 1.64,0.31l0.14 0 0.13 -0.76c-0.26,-0.01 -1.01,-0.2 -1.25,-0.26 -0.25,-0.06 -0.48,-0.19 -0.52,0.03 -0.04,0.21 -0.13,0.48 -0.13,0.67z"/>
    <polygon class="fil0" points="4,29.36 4.14,30.12 5.92,29.78 5.78,28.99 "/>
    <polygon class="fil0" points="3.69,23.38 5.51,23.56 5.56,22.77 3.79,22.58 "/>
    <path class="fil0" d="M5.33 33.69l0.31 0.71 1.65 -0.71c-0.03,-0.11 -0.27,-0.71 -0.36,-0.71 -0.05,0 -1.47,0.64 -1.6,0.71z"/>
    <polygon class="fil0" points="4.57,31.55 4.8,32.31 6.52,31.78 6.26,31.01 "/>
    <path class="fil0" d="M7.51 12.85c0.14,0.09 1.42,1.02 1.42,1.02 0.13,0 0.42,-0.47 0.51,-0.6l-1.46 -1.06 -0.47 0.64z"/>
    <path class="fil0" d="M29.03 44.72c0.01,0.32 0.2,0.95 0.26,1.25 0.17,0.88 0.04,0.39 0.87,0.39l-0.38 -1.79 -0.75 0.15z"/>
    <polygon class="fil0" points="3.69,27.12 3.78,27.89 5.33,27.74 5.56,27.74 5.51,27.07 5.51,26.93 "/>
    <polygon class="fil0" points="16.1,44.88 16.83,45.16 17.55,43.53 16.83,43.22 "/>
    <polygon class="fil0" points="18.23,4.77 18.76,6.49 19.52,6.27 18.97,4.55 "/>
    <polygon class="fil0" points="22.63,3.77 22.8,5.56 23.57,5.47 23.43,3.69 "/>
    <path class="fil0" d="M20.41 4.15c0.01,0.37 0.21,0.93 0.25,1.24 0.14,0.92 0.13,0.39 0.87,0.39l-0.37 -1.78 -0.75 0.16z"/>
    <polygon class="fil0" points="16.14,5.61 16.82,7.28 17.56,6.98 16.84,5.31 "/>
    <polygon class="fil0" points="18.2,45.73 18.96,45.91 19.51,44.24 18.75,44.01 "/>
    <polygon class="fil0" points="7.53,37.63 8.01,38.28 9.43,37.2 8.98,36.58 "/>
    <polygon class="fil0" points="36.62,8.97 37.27,9.41 38.32,7.96 37.67,7.52 "/>
    <polygon class="fil0" points="20.37,46.36 21.15,46.49 21.51,44.73 20.76,44.59 "/>
    <polygon class="fil0" points="12.21,42.53 12.87,42.97 13.91,41.52 13.27,41.09 "/>
    <polygon class="fil0" points="10.51,9.4 11.67,10.78 12.29,10.25 11.06,8.92 "/>
    <polygon class="fil0" points="4.56,18.93 6.28,19.47 6.48,18.73 4.79,18.18 "/>
    <polygon class="fil0" points="29.01,5.78 29.78,5.91 30.14,4.15 29.39,4 "/>
    <polygon class="fil0" points="26.97,5.47 27.73,5.56 27.92,3.73 27.69,3.74 27.13,3.69 "/>
    <polygon class="fil0" points="22.61,46.72 23.39,46.81 23.56,44.99 23.2,45 22.79,44.94 "/>
    <polygon class="fil0" points="5.32,16.8 6.98,17.52 7.29,16.81 5.64,16.09 "/>
    <polygon class="fil0" points="31.02,6.27 31.78,6.49 32.31,4.77 31.58,4.58 "/>
    <polygon class="fil0" points="8.92,11.05 10.26,12.26 10.77,11.67 9.43,10.49 "/>
    <polygon class="fil0" points="32.98,6.98 33.73,7.24 34.4,5.61 33.71,5.34 "/>
    <polygon class="fil0" points="8.91,39.44 9.72,39.77 10.76,38.8 10.26,38.22 "/>
    <path class="fil0" d="M10.76 40.85c0,0.06 0.26,0.61 0.33,0.73l1.18 -1.35 -0.57 -0.49c-0.12,0.09 -0.93,0.98 -0.93,1.11z"/>
    <polygon class="fil0" points="64.95,29.47 66.95,29.47 66.95,28.89 64.95,28.89 "/>
    <polygon class="fil0" points="64.95,21.6 66.95,21.6 66.95,21.03 64.95,21.03 "/>
    <path class="fil0" d="M64.95 34.27l0 0.44 2 0 0 -0.58 -1.87 0c-0.1,0 -0.13,0.03 -0.13,0.13z"/>
    <path class="fil0" d="M64.95 16.23c0,0.1 0.03,0.13 0.13,0.13l1.87 0 0 -0.58 -2 0 0 0.44z"/>
    <polygon class="fil0" points="64.95,17.65 66.95,17.65 66.95,17.11 64.95,17.11 "/>
    <polygon class="fil0" points="64.95,33.38 66.95,33.38 66.95,32.85 64.95,32.85 "/>
    <polygon class="fil0" points="64.95,28.14 66.95,28.14 66.95,27.61 64.95,27.61 "/>
    <polygon class="fil0" points="64.95,22.89 66.95,22.89 66.95,22.36 64.95,22.36 "/>
    <polygon class="fil0" points="64.95,30.76 66.95,30.76 66.95,30.23 64.95,30.23 "/>
    <polygon class="fil0" points="64.95,20.27 66.95,20.27 66.95,19.74 64.95,19.74 "/>
    <polygon class="fil0" points="64.99,26.8 66.95,26.8 66.95,26.32 64.99,26.32 "/>
    <polygon class="fil0" points="64.99,24.18 66.95,24.18 66.95,23.69 64.99,23.69 "/>
   </g>
   <path class="fil1" d="M79.99 19.2l-3.05 -7.17 1.63 0 2.38 5.81 -0.96 1.36zm3.65 -7.17l-2.37 6.44c-0.21,0.57 -0.48,1.01 -0.79,1.31 -0.31,0.3 -0.73,0.45 -1.24,0.45l-0.94 0 0 -1.46 0.61 0c0.26,0 0.48,-0.08 0.66,-0.24 0.18,-0.16 0.32,-0.4 0.44,-0.73l2.07 -5.77 1.57 0zm3.44 8.2c-0.81,0 -1.47,-0.2 -1.98,-0.61 -0.5,-0.41 -0.8,-0.98 -0.9,-1.72l0 0 1.55 0 0 0c0.05,0.27 0.19,0.48 0.41,0.62 0.22,0.15 0.51,0.22 0.86,0.22 0.38,0 0.67,-0.1 0.88,-0.29 0.21,-0.2 0.31,-0.47 0.31,-0.83l0 -0.01c0,-0.3 -0.08,-0.54 -0.23,-0.7 -0.16,-0.17 -0.38,-0.25 -0.67,-0.25l-1.3 0 0 -1.48 1.3 0c0.25,0 0.44,-0.07 0.57,-0.21 0.13,-0.14 0.2,-0.33 0.2,-0.58l0 -0.05c0,-0.29 -0.09,-0.52 -0.26,-0.68 -0.17,-0.16 -0.42,-0.24 -0.74,-0.24 -0.3,0 -0.56,0.08 -0.76,0.23 -0.21,0.16 -0.35,0.38 -0.43,0.66l0 0 -1.55 0 0 0c0.14,-0.76 0.45,-1.34 0.93,-1.76 0.48,-0.42 1.08,-0.63 1.81,-0.63 0.84,0 1.49,0.18 1.96,0.55 0.46,0.37 0.69,0.89 0.69,1.56l0 0.04c0,0.43 -0.1,0.8 -0.3,1.11 -0.2,0.31 -0.48,0.55 -0.85,0.69 0.41,0.09 0.72,0.31 0.95,0.65 0.22,0.34 0.34,0.78 0.34,1.31l0 0.01c0,0.75 -0.24,1.33 -0.73,1.74 -0.49,0.41 -1.17,0.61 -2.05,0.61zm4.95 -0.08l0 -1.47 2.6 0c0.28,0 0.5,-0.1 0.67,-0.29 0.17,-0.19 0.26,-0.44 0.26,-0.75l0 0c0,-0.32 -0.09,-0.57 -0.26,-0.76 -0.17,-0.19 -0.39,-0.28 -0.67,-0.28l-2.6 0 0 -1.48 2.56 0c0.51,0 0.96,0.11 1.34,0.31 0.38,0.21 0.68,0.5 0.89,0.88 0.21,0.38 0.32,0.82 0.32,1.33l0 0c0,0.5 -0.11,0.94 -0.32,1.32 -0.21,0.38 -0.51,0.67 -0.89,0.88 -0.38,0.21 -0.83,0.31 -1.34,0.31l-2.56 0zm-0.7 0l0 -8.12 1.53 0 0 8.12 -1.53 0zm0.55 -6.64l0 -1.47 4.66 0 0 1.47 -4.66 0zm6.73 6.64l0 -8.12 1.53 0 0 8.12 -1.53 0zm0.55 0l0 -1.47 4.88 0 0 1.47 -4.88 0zm0 -3.29l0 -1.47 4.27 0 0 1.47 -4.27 0zm0 -3.35l0 -1.47 4.88 0 0 1.47 -4.88 0zm9.67 3.19l-1.13 -1 2.08 -3.66 1.76 0 -2.71 4.66zm1.13 3.45l-2.27 -3.57 1.39 -0.59 2.8 4.16 -1.92 0zm-4.53 0l0 -8.12 1.53 0 0 8.12 -1.53 0zm0.66 -3.29l0 -1.47 2.88 0 0 1.47 -2.88 0zm9.11 3.38c-0.62,0 -1.15,-0.12 -1.59,-0.35 -0.44,-0.24 -0.77,-0.58 -1,-1.03 -0.23,-0.45 -0.35,-1 -0.35,-1.64l0 -2.23c0,-0.64 0.11,-1.19 0.35,-1.64 0.23,-0.45 0.56,-0.79 1,-1.03 0.44,-0.24 0.97,-0.36 1.59,-0.36 0.51,0 0.97,0.11 1.37,0.33 0.4,0.22 0.73,0.54 0.99,0.96 0.26,0.42 0.44,0.92 0.54,1.52l0 0 -1.59 0 0 0c-0.06,-0.27 -0.15,-0.5 -0.28,-0.69 -0.12,-0.19 -0.27,-0.33 -0.45,-0.43 -0.18,-0.1 -0.38,-0.15 -0.59,-0.15 -0.43,0 -0.76,0.13 -1,0.39 -0.24,0.26 -0.35,0.63 -0.35,1.11l0 2.23c0,0.48 0.12,0.84 0.35,1.11 0.24,0.26 0.57,0.39 1,0.39 0.33,0 0.62,-0.11 0.85,-0.33 0.23,-0.22 0.39,-0.54 0.47,-0.94l0 0 1.59 0 0 0c-0.1,0.59 -0.29,1.1 -0.55,1.52 -0.26,0.42 -0.59,0.74 -0.99,0.96 -0.4,0.22 -0.86,0.33 -1.37,0.33zm7.59 -3.54l-1.13 -1 2.08 -3.66 1.76 0 -2.71 4.66zm1.13 3.45l-2.27 -3.57 1.39 -0.59 2.8 4.16 -1.92 0zm-4.53 0l0 -8.12 1.53 0 0 8.12 -1.53 0zm0.66 -3.29l0 -1.47 2.88 0 0 1.47 -2.88 0zm13 3.29l-1.46 0 0 -6.49 0.13 0.14 -3.06 6.35 -1.83 0 0 -8.11 1.46 0 0 6.59 -0.13 -0.14 3.08 -6.44 1.81 0 0 8.11zm8.01 0l-1.46 0 0 -6.49 0.13 0.14 -3.06 6.35 -1.83 0 0 -8.11 1.46 0 0 6.59 -0.13 -0.14 3.08 -6.44 1.81 0 0 8.11zm-2.57 -10.55l1.26 -0.01c0,0.6 -0.16,1.06 -0.49,1.38 -0.32,0.33 -0.78,0.49 -1.37,0.49l-0.04 0c-0.59,0 -1.05,-0.16 -1.37,-0.49 -0.32,-0.33 -0.49,-0.78 -0.49,-1.38l1.26 0.01c0,0.24 0.05,0.43 0.16,0.57 0.11,0.14 0.25,0.2 0.44,0.2l0.04 0c0.19,0 0.34,-0.07 0.45,-0.2 0.1,-0.13 0.16,-0.32 0.16,-0.57zm-56.46 24.28l0 -8.12 1.53 0 0 8.12 -1.53 0zm-4.44 0l0 -8.12 1.53 0 0 8.12 -1.53 0zm0.71 -3.29l0 -1.47 4.73 0 0 1.47 -4.73 0zm6.16 3.29l3.1 -8.12 0.97 0 3.1 8.12 -1.65 0 -1.94 -5.54 -1.94 5.54 -1.65 0zm1.49 -1.3l0 -1.47 4.27 0 0 1.47 -4.27 0zm11.05 1.3l0 -8.09 1.53 0 0 8.09 -1.53 0zm-3.65 0l0 -1.47 5.91 0 0 1.47 -5.91 0zm4.74 1.85l0 -3.32 1.53 0 0 3.32 -1.53 0zm-5.45 -1.85l0 -8.12 1.53 0 0 8.12 -1.53 0zm14.52 -0.01l-1.46 0 0 -6.49 0.13 0.14 -3.06 6.35 -1.83 0 0 -8.11 1.46 0 0 6.59 -0.13 -0.14 3.08 -6.44 1.81 0 0 8.11zm4.58 0.09c-0.6,0 -1.12,-0.12 -1.56,-0.37 -0.45,-0.25 -0.79,-0.6 -1.04,-1.05 -0.25,-0.45 -0.37,-0.98 -0.37,-1.57l0 -2.3c0,-0.6 0.12,-1.13 0.37,-1.58 0.25,-0.45 0.59,-0.8 1.04,-1.04 0.44,-0.25 0.96,-0.37 1.56,-0.37 0.59,0 1.11,0.12 1.56,0.37 0.45,0.25 0.79,0.6 1.04,1.04 0.25,0.45 0.37,0.97 0.37,1.58l0 2.3c0,0.6 -0.12,1.12 -0.37,1.57 -0.25,0.45 -0.59,0.8 -1.04,1.05 -0.44,0.25 -0.96,0.37 -1.56,0.37zm0 -1.53c0.42,0 0.75,-0.13 1,-0.39 0.25,-0.26 0.38,-0.6 0.38,-1.04l0 -2.38c0,-0.43 -0.12,-0.78 -0.37,-1.03 -0.25,-0.26 -0.59,-0.39 -1,-0.39 -0.42,0 -0.75,0.13 -1,0.39 -0.25,0.26 -0.38,0.6 -0.38,1.03l0 2.38c0,0.43 0.13,0.78 0.38,1.04 0.25,0.26 0.58,0.39 1,0.39zm8.91 1.45l0 -8.12 1.53 0 0 8.12 -1.53 0zm-4.44 0l0 -8.12 1.53 0 0 8.12 -1.53 0zm0.71 -3.29l0 -1.47 4.73 0 0 1.47 -4.73 0zm6.16 3.29l3.1 -8.12 0.97 0 3.1 8.12 -1.65 0 -1.94 -5.54 -1.94 5.54 -1.65 0zm1.49 -1.3l0 -1.47 4.27 0 0 1.47 -4.27 0zm6.47 1.3l0 -1.47 0 0c0.41,0 0.72,-0.16 0.94,-0.47 0.22,-0.31 0.34,-0.75 0.34,-1.31l0 -4.86 1.53 0 0 5.02c0,0.99 -0.24,1.75 -0.71,2.29 -0.47,0.54 -1.13,0.81 -1.99,0.81l-0.12 0zm5.22 0l0 -8.12 1.53 0 0 8.12 -1.53 0zm-3.12 -6.64l0 -1.47 3.72 0 0 1.47 -3.72 0zm7.13 6.64l0 -1.47 2.57 0c0.27,0 0.5,-0.1 0.67,-0.29 0.17,-0.19 0.26,-0.44 0.26,-0.75l0 0c0,-0.32 -0.08,-0.57 -0.25,-0.76 -0.17,-0.19 -0.39,-0.28 -0.67,-0.28l-2.57 0 0 -1.48 2.53 0c0.51,0 0.96,0.11 1.34,0.31 0.38,0.21 0.68,0.5 0.89,0.88 0.21,0.38 0.32,0.82 0.32,1.33l0 0c0,0.5 -0.11,0.94 -0.32,1.32 -0.21,0.38 -0.51,0.67 -0.89,0.88 -0.38,0.21 -0.83,0.31 -1.34,0.31l-2.53 0zm-0.7 0l0 -8.12 1.53 0 0 8.12 -1.53 0zm11.48 0l0 -8.12 1.53 0 0 8.12 -1.53 0zm-4.44 0l0 -8.12 1.53 0 0 8.12 -1.53 0zm0.71 -3.29l0 -1.47 4.73 0 0 1.47 -4.73 0zm7.75 3.29l0 -1.47 2.23 0c0.27,0 0.5,-0.1 0.67,-0.29 0.17,-0.19 0.26,-0.44 0.26,-0.75l0 0c0,-0.32 -0.08,-0.57 -0.25,-0.76 -0.17,-0.19 -0.39,-0.28 -0.67,-0.28l-2.23 0 0 -1.48 2.19 0c0.51,0 0.96,0.11 1.34,0.31 0.38,0.21 0.68,0.5 0.89,0.88 0.21,0.38 0.32,0.82 0.32,1.33l0 0c0,0.5 -0.11,0.94 -0.32,1.32 -0.21,0.38 -0.51,0.67 -0.89,0.88 -0.38,0.21 -0.83,0.31 -1.34,0.31l-2.19 0zm-0.7 0l0 -8.12 1.53 0 0 8.12 -1.53 0zm7.88 -8.12l0 8.12 -1.59 0 0 -8.12 1.59 0zm7.89 8.11l-1.46 0 0 -6.49 0.13 0.14 -3.06 6.35 -1.83 0 0 -8.11 1.46 0 0 6.59 -0.13 -0.14 3.08 -6.44 1.81 0 0 8.11zm-2.57 -10.55l1.26 -0.01c0,0.6 -0.16,1.06 -0.49,1.38 -0.32,0.33 -0.78,0.49 -1.37,0.49l-0.04 0c-0.59,0 -1.05,-0.16 -1.37,-0.49 -0.32,-0.33 -0.49,-0.78 -0.49,-1.38l1.26 0.01c0,0.24 0.05,0.43 0.16,0.57 0.11,0.14 0.25,0.2 0.44,0.2l0.04 0c0.19,0 0.34,-0.07 0.45,-0.2 0.1,-0.13 0.16,-0.32 0.16,-0.57zm13.64 10.55l-1.46 0 0 -6.49 0.13 0.14 -3.06 6.35 -1.83 0 0 -8.11 1.46 0 0 6.59 -0.13 -0.14 3.08 -6.44 1.81 0 0 8.11zm6.23 0.01l0 -8.12 1.53 0 0 8.12 -1.53 0zm-4.44 0l0 -8.12 1.53 0 0 8.12 -1.53 0zm0.71 -3.29l0 -1.47 4.73 0 0 1.47 -4.73 0zm9.82 3.37c-0.62,0 -1.15,-0.12 -1.59,-0.35 -0.44,-0.24 -0.77,-0.58 -1,-1.03 -0.23,-0.45 -0.35,-1 -0.35,-1.64l0 -2.23c0,-0.64 0.11,-1.19 0.35,-1.64 0.23,-0.45 0.56,-0.79 1,-1.03 0.44,-0.24 0.97,-0.36 1.59,-0.36 0.51,0 0.97,0.11 1.37,0.33 0.4,0.22 0.73,0.54 0.99,0.96 0.26,0.42 0.44,0.92 0.54,1.52l0 0 -1.59 0 0 0c-0.06,-0.27 -0.15,-0.5 -0.28,-0.69 -0.12,-0.19 -0.27,-0.33 -0.45,-0.43 -0.18,-0.1 -0.38,-0.15 -0.59,-0.15 -0.43,0 -0.76,0.13 -1,0.39 -0.24,0.26 -0.35,0.63 -0.35,1.11l0 2.23c0,0.48 0.12,0.84 0.35,1.11 0.24,0.26 0.57,0.39 1,0.39 0.33,0 0.62,-0.11 0.85,-0.33 0.23,-0.22 0.39,-0.54 0.47,-0.94l0 0 1.59 0 0 0c-0.1,0.59 -0.29,1.1 -0.55,1.52 -0.26,0.42 -0.59,0.74 -0.99,0.96 -0.4,0.22 -0.86,0.33 -1.37,0.33zm5.4 -0.08l0 -7.45 1.53 0 0 7.45 -1.53 0zm-2.21 -6.64l0 -1.47 5.95 0 0 1.47 -5.95 0zm13.06 6.64l-1.46 0 0 -6.49 0.13 0.14 -3.06 6.35 -1.83 0 0 -8.11 1.46 0 0 6.59 -0.13 -0.14 3.08 -6.44 1.81 0 0 8.11zm3.33 0.01l0 -7.45 1.53 0 0 7.45 -1.53 0zm-2.21 -6.64l0 -1.47 5.95 0 0 1.47 -5.95 0zm9.67 5.69l-3.05 -7.17 1.63 0 2.38 5.81 -0.96 1.36zm3.65 -7.17l-2.37 6.44c-0.21,0.57 -0.48,1.01 -0.79,1.31 -0.31,0.3 -0.73,0.45 -1.24,0.45l-0.94 0 0 -1.46 0.61 0c0.26,0 0.48,-0.08 0.66,-0.24 0.18,-0.16 0.32,-0.4 0.44,-0.73l2.07 -5.77 1.57 0zm2.6 8.12l0 -7.45 1.53 0 0 7.45 -1.53 0zm-2.21 -6.64l0 -1.47 5.95 0 0 1.47 -5.95 0zm-143.46 17.72l1.55 -5.47 2.02 0 0 8.12 -1.39 0 0 -6.3 0.06 0.36 -1.55 5.04 -1.35 0 -1.55 -4.93 0.06 -0.47 0 6.3 -1.39 0 0 -8.12 2.01 0 1.55 5.47zm5.35 2.65l0 -8.12 1.53 0 0 8.12 -1.53 0zm0.55 0l0 -1.47 4.88 0 0 1.47 -4.88 0zm0 -3.29l0 -1.47 4.27 0 0 1.47 -4.27 0zm0 -3.35l0 -1.47 4.88 0 0 1.47 -4.88 0zm7.82 6.64l0 -7.45 1.53 0 0 7.45 -1.53 0zm-2.21 -6.64l0 -1.47 5.95 0 0 1.47 -5.95 0zm7.54 3.49l0 -1.47 2.6 0c0.28,0 0.5,-0.09 0.67,-0.28 0.17,-0.18 0.26,-0.43 0.26,-0.73l0 0c0,-0.31 -0.08,-0.56 -0.25,-0.74 -0.17,-0.18 -0.39,-0.28 -0.68,-0.28l-2.6 0 0 -1.47 2.56 0c0.51,0 0.96,0.1 1.34,0.31 0.38,0.21 0.68,0.5 0.89,0.87 0.21,0.37 0.32,0.81 0.32,1.31l0 0c0,0.5 -0.11,0.93 -0.32,1.31 -0.21,0.37 -0.51,0.66 -0.89,0.87 -0.38,0.2 -0.83,0.31 -1.34,0.31l-2.56 0zm-0.7 3.15l0 -8.12 1.53 0 0 8.12 -1.53 0zm9.8 0.08c-0.6,0 -1.12,-0.12 -1.56,-0.37 -0.45,-0.25 -0.79,-0.6 -1.04,-1.05 -0.25,-0.45 -0.37,-0.98 -0.37,-1.57l0 -2.3c0,-0.6 0.12,-1.13 0.37,-1.58 0.25,-0.45 0.59,-0.8 1.04,-1.04 0.44,-0.25 0.96,-0.37 1.56,-0.37 0.59,0 1.11,0.12 1.56,0.37 0.45,0.25 0.79,0.6 1.04,1.04 0.25,0.45 0.37,0.97 0.37,1.58l0 2.3c0,0.6 -0.12,1.12 -0.37,1.57 -0.25,0.45 -0.59,0.8 -1.04,1.05 -0.44,0.25 -0.96,0.37 -1.56,0.37zm0 -1.53c0.42,0 0.75,-0.13 1,-0.39 0.25,-0.26 0.38,-0.6 0.38,-1.04l0 -2.38c0,-0.43 -0.12,-0.78 -0.37,-1.03 -0.25,-0.26 -0.59,-0.39 -1,-0.39 -0.42,0 -0.75,0.13 -1,0.39 -0.25,0.26 -0.38,0.6 -0.38,1.03l0 2.38c0,0.43 0.13,0.78 0.38,1.04 0.25,0.26 0.58,0.39 1,0.39zm4.02 1.45l0 -1.47 0 0c0.41,0 0.72,-0.16 0.94,-0.47 0.22,-0.31 0.34,-0.75 0.34,-1.31l0 -4.86 1.53 0 0 5.02c0,0.99 -0.24,1.75 -0.71,2.29 -0.47,0.54 -1.13,0.81 -1.99,0.81l-0.12 0zm5.22 0l0 -8.12 1.53 0 0 8.12 -1.53 0zm-3.12 -6.64l0 -1.47 3.72 0 0 1.47 -3.72 0zm9.23 6.73c-0.6,0 -1.12,-0.12 -1.56,-0.37 -0.45,-0.25 -0.79,-0.6 -1.04,-1.05 -0.25,-0.45 -0.37,-0.98 -0.37,-1.57l0 -2.3c0,-0.6 0.12,-1.13 0.37,-1.58 0.25,-0.45 0.59,-0.8 1.04,-1.04 0.44,-0.25 0.96,-0.37 1.56,-0.37 0.59,0 1.11,0.12 1.56,0.37 0.45,0.25 0.79,0.6 1.04,1.04 0.25,0.45 0.37,0.97 0.37,1.58l0 2.3c0,0.6 -0.12,1.12 -0.37,1.57 -0.25,0.45 -0.59,0.8 -1.04,1.05 -0.44,0.25 -0.96,0.37 -1.56,0.37zm0 -1.53c0.42,0 0.75,-0.13 1,-0.39 0.25,-0.26 0.38,-0.6 0.38,-1.04l0 -2.38c0,-0.43 -0.12,-0.78 -0.37,-1.03 -0.25,-0.26 -0.59,-0.39 -1,-0.39 -0.42,0 -0.75,0.13 -1,0.39 -0.25,0.26 -0.38,0.6 -0.38,1.03l0 2.38c0,0.43 0.13,0.78 0.38,1.04 0.25,0.26 0.58,0.39 1,0.39zm4.47 1.45l0 -8.12 1.53 0 0 8.12 -1.53 0zm0.55 -6.64l0 -1.47 4.22 0 0 1.47 -4.22 0zm11.56 6.64l-1.46 0 0 -6.49 0.13 0.14 -3.06 6.35 -1.83 0 0 -8.11 1.46 0 0 6.59 -0.13 -0.14 3.08 -6.44 1.81 0 0 8.11zm8.01 0l-1.46 0 0 -6.49 0.13 0.14 -3.06 6.35 -1.83 0 0 -8.11 1.46 0 0 6.59 -0.13 -0.14 3.08 -6.44 1.81 0 0 8.11z"/>
  </g>
 </g>
</svg>
